<svg width="759" height="848" viewBox="0 0 759 848" fill="none" xmlns="http://www.w3.org/2000/svg">
<g id="undraw_unicorn_dp2f 1">
<g id="globes">
<g id="curve_shapes">
<path id="Vector" d="M278.615 767.126L277.036 765.484C277.348 765.184 308.43 734.748 320.275 677.873C331.214 625.353 327.519 538.883 247.796 425.202C214.485 377.704 191.769 332.827 180.278 291.819C170.889 258.311 168.901 227.162 174.37 199.236C185.181 144.024 221.927 119.785 222.297 119.547L223.531 121.462C223.169 121.696 187.191 145.48 176.592 199.745C164.432 262.003 189.016 337.418 249.661 423.894C285.075 474.391 308.648 523.838 319.728 570.862C328.603 608.533 329.528 644.742 322.476 678.483C310.456 735.993 278.932 766.821 278.615 767.126Z" fill="white"/>
<path id="Vector_2" d="M290.319 431.719C330.715 431.719 363.462 398.972 363.462 358.577C363.462 318.181 330.715 285.434 290.319 285.434C249.924 285.434 217.177 318.181 217.177 358.577C217.177 398.972 249.924 431.719 290.319 431.719Z" fill="url(#paint0_radial)"/>
<path id="Vector_3" d="M253.031 685.567C293.427 685.567 326.174 652.82 326.174 612.424C326.174 572.029 293.427 539.282 253.031 539.282C212.636 539.282 179.888 572.029 179.888 612.424C179.888 652.82 212.636 685.567 253.031 685.567Z" fill="url(#paint1_linear)"/>
<path id="Vector_4" d="M513.847 88.1369C523.286 88.1369 530.937 80.4854 530.937 71.0468C530.937 61.6082 523.286 53.9567 513.847 53.9567C504.408 53.9567 496.757 61.6082 496.757 71.0468C496.757 80.4854 504.408 88.1369 513.847 88.1369Z" fill="url(#paint2_linear)"/>
</g>
<path id="main_globe" d="M202.118 246.712C250.83 246.712 290.319 207.223 290.319 158.51C290.319 109.798 250.83 70.309 202.118 70.309C153.406 70.309 113.917 109.798 113.917 158.51C113.917 207.223 153.406 246.712 202.118 246.712Z" fill="url(#paint3_linear)"/>
<path id="circle" d="M222.914 240.68C199.145 240.68 175.911 233.632 156.148 220.427C136.385 207.222 120.982 188.453 111.886 166.494C102.79 144.535 100.41 120.372 105.047 97.0602C109.684 73.7485 121.13 52.3353 137.936 35.5284C154.743 18.7216 176.156 7.27593 199.468 2.63889C222.78 -1.99815 246.943 0.381669 268.902 9.4774C290.861 18.5731 309.63 33.9763 322.835 53.7389C336.04 73.5016 343.089 96.7363 343.089 120.505C343.053 152.366 330.38 182.912 307.85 205.442C285.321 227.971 254.775 240.644 222.914 240.68V240.68ZM222.914 2.6084C199.596 2.60834 176.802 9.52281 157.414 22.4774C138.026 35.4321 122.914 53.845 113.991 75.3878C105.068 96.9306 102.733 120.636 107.282 143.505C111.831 166.375 123.06 187.382 139.548 203.87C156.036 220.359 177.043 231.587 199.913 236.136C222.783 240.685 246.488 238.351 268.031 229.427C289.573 220.504 307.986 205.393 320.941 186.005C333.895 166.617 340.81 143.822 340.81 120.505C340.775 89.2475 328.342 59.2807 306.24 37.1785C284.138 15.0764 254.171 2.6438 222.914 2.6084V2.6084Z" fill="white"/>
</g>
</g>
<defs>
<radialGradient id="paint0_radial" cx="0" cy="0" r="1" gradientUnits="userSpaceOnUse" gradientTransform="translate(290.319 358.577) rotate(90) scale(73.1425)">
<stop stop-color="#8E00FE"/>
<stop offset="1" stop-color="white" stop-opacity="0"/>
</radialGradient>
<linearGradient id="paint1_linear" x1="326" y1="612" x2="119.5" y2="612" gradientUnits="userSpaceOnUse">
<stop stop-color="#343AB9"/>
<stop offset="1" stop-color="#03FFE1" stop-opacity="0"/>
</linearGradient>
<linearGradient id="paint2_linear" x1="513.847" y1="53.9567" x2="514" y2="94.5" gradientUnits="userSpaceOnUse">
<stop stop-color="#6D1CAC"/>
<stop offset="1" stop-color="#6D1CAC" stop-opacity="0"/>
</linearGradient>
<linearGradient id="paint3_linear" x1="114" y1="159" x2="290" y2="159" gradientUnits="userSpaceOnUse">
<stop stop-color="#6B13DA" stop-opacity="0.62"/>
<stop offset="1" stop-color="#03C8BC"/>
</linearGradient>
</defs>
</svg>
